# xmcd CD database file
#
# Track frame offsets:
#	150
#	24707
#	42673
#	70710
#	81844
#	110157
#	132909
#	158221
#	194044
#
# Disc length: 2920 seconds
#
# Revision: 0
# Processed by: cddbd v1.5.2PL0 Copyright (c) Steve Scherf et al.
# Submitted via: CDex 1.51
#
DISCID=830b6609
DTITLE=Ricardo Scales - The Days of Wine and Jazz Noveau
DYEAR=2004
DGENRE=Jazz
TTITLE0=Blue Monk
TTITLE1=Song For My Father
TTITLE2=Straight No Chaser
TTITLE3=Take the "A" Train
TTITLE4=Take Five
TTITLE5=A Taste of Honey
TTITLE6=The Days of Wine and Roses
TTITLE7=Sugar
TTITLE8=Tenderly
EXTD=YEAR: 2004
EXTT0=
EXTT1=
EXTT2=
EXTT3=
EXTT4=
EXTT5=
EXTT6=
EXTT7=
EXTT8=
PLAYORDER=
